<?xml version="1.0" encoding="UTF-8"?>
<svg width="17px" height="17px" viewBox="0 0 17 17" version="1.1" xmlns="http://www.w3.org/2000/svg" xmlns:xlink="http://www.w3.org/1999/xlink">
    <!-- Generator: Sketch 50.2 (55047) - http://www.bohemiancoding.com/sketch -->
    <title>Shape</title>
    <desc>Created with Sketch.</desc>
    <defs></defs>
    <g id="Page-1" stroke="none" stroke-width="1" fill="none" fill-rule="evenodd">
        <g id="icon-close" transform="translate(1.000000, 1.000000)" fill="#333333" fill-rule="nonzero">
            <path d="M-0.707106781,0.707106781 C-1.09763107,0.316582489 -1.09763107,-0.316582489 -0.707106781,-0.707106781 C-0.316582489,-1.09763107 0.316582489,-1.09763107 0.707106781,-0.707106781 L15.7071068,14.2928932 C16.0976311,14.6834175 16.0976311,15.3165825 15.7071068,15.7071068 C15.3165825,16.0976311 14.6834175,16.0976311 14.2928932,15.7071068 L-0.707106781,0.707106781 Z M14.2928932,-0.707106781 C14.6834175,-1.09763107 15.3165825,-1.09763107 15.7071068,-0.707106781 C16.0976311,-0.316582489 16.0976311,0.316582489 15.7071068,0.707106781 L0.707106781,15.7071068 C0.316582489,16.0976311 -0.316582489,16.0976311 -0.707106781,15.7071068 C-1.09763107,15.3165825 -1.09763107,14.6834175 -0.707106781,14.2928932 L14.2928932,-0.707106781 Z" id="Shape"></path>
        </g>
    </g>
</svg>