<!-- Generated by IcoMoon.io -->
<svg version="1.1" xmlns="http://www.w3.org/2000/svg" width="1024" height="1024" viewBox="0 0 1024 1024">
<title></title>
<g id="icomoon-ignore">
</g>
<path d="M512.067 977.085c-256.849 0-465.066-208.219-465.066-465.070 0-256.848 208.218-465.065 465.066-465.065s465.065 208.216 465.065 465.065c0 256.851-208.215 465.070-465.065 465.070zM512.067 900.285c214.434 0 388.265-173.834 388.265-388.27 0-214.434-173.831-388.265-388.265-388.265s-388.266 173.833-388.266 388.265c0 214.435 173.833 388.27 388.266 388.27z"></path>
<path d="M473.6 341.35c0-21.208 17.192-38.4 38.4-38.4s38.4 17.192 38.4 38.4v341.336c0 21.208-17.192 38.4-38.4 38.4s-38.4-17.192-38.4-38.4v-341.336z"></path>
<path d="M341.4 550.4c-21.208 0-38.4-17.192-38.4-38.4s17.192-38.4 38.4-38.4h341.331c21.208 0 38.4 17.192 38.4 38.4s-17.192 38.4-38.4 38.4h-341.331z"></path>
</svg>
