<svg width="18" height="18" viewBox="0 0 18 18" fill="none" xmlns="http://www.w3.org/2000/svg">
<g opacity="0.9" clip-path="url(#clip0)">
<path d="M12.9375 9H10.6875C10.3768 9 10.125 9.25182 10.125 9.5625V14.0625C10.125 14.3732 10.3768 14.625 10.6875 14.625H12.9375C13.5588 14.625 14.0625 14.1213 14.0625 13.5V10.125C14.0625 9.50368 13.5588 9 12.9375 9ZM12.9375 13.5H11.25V10.125H12.9375V13.5Z" fill="#333333"/>
<path d="M18 10.125V9H15.1875C14.8768 9 14.625 9.25182 14.625 9.5625V14.625H15.75V12.375H18V11.25H15.75V10.125H18Z" fill="#333333"/>
<path d="M1.125 16.3125V1.68751C1.125 1.37683 1.37682 1.12501 1.6875 1.12501H10.125V3.37501C10.125 3.99633 10.6287 4.50001 11.25 4.50001H13.5V6.18751H14.625V3.93751C14.6259 3.78799 14.5672 3.64427 14.4619 3.53813L11.0869 0.163134C10.9807 0.057841 10.837 -0.000834775 10.6875 8.97536e-06H1.6875C0.755508 8.97536e-06 0 0.755552 0 1.68751V16.3125C0 17.2445 0.755508 18 1.6875 18H5.625V16.875H1.6875C1.37686 16.875 1.125 16.6232 1.125 16.3125Z" fill="#333333"/>
<path d="M8.4375 9H6.1875C5.87682 9 5.625 9.25182 5.625 9.5625V14.625H6.75V12.9375H8.4375C9.05882 12.9375 9.5625 12.4338 9.5625 11.8125V10.125C9.5625 9.50368 9.05882 9 8.4375 9ZM8.4375 11.8125H6.75V10.125H8.4375V11.8125Z" fill="#333333"/>
</g>
<defs>
<clipPath id="clip0">
<rect width="18" height="18" fill="white"/>
</clipPath>
</defs>
</svg>
